# xmcd CD database file
#
# Track frame offsets:
#	150
#	18860
#	42321
#	57293
#	73282
#	105350
#	119777
#	136884
#	156409
#	170932
#	190426
#	204479
#	219085
#	239153
#
# Disc length: 3349 seconds
#
# Revision: 0
# Processed by: cddbd v1.5.2PL0 Copyright (c) Steve Scherf et al.
# Submitted via: CDex 1.70beta2
#
DISCID=d80d130e
DTITLE=Quincy  Jones - This is How I Feel About Jazz
DYEAR=1900
DGENRE=Jazz
TTITLE0=Evening in Paris
TTITLE1=Boo's Blues
TTITLE2=Lullaby Of Birdland
TTITLE3=My Funny Valentine
TTITLE4=Quince
TTITLE5=Stardust
TTITLE6=Fallen Feathers
TTITLE7=You'de Be So Nive To Come Home To
TTITLE8=You're Crying
TTITLE9=Hurricane Connie
TTITLE10=My Old Flame
TTITLE11=S'Wonderful
TTITLE12=I Could Write a Book
TTITLE13=Relax Max
EXTD=
EXTT0=
EXTT1=
EXTT2=
EXTT3=
EXTT4=
EXTT5=
EXTT6=
EXTT7=
EXTT8=
EXTT9=
EXTT10=
EXTT11=
EXTT12=
EXTT13=
PLAYORDER=
